<?xml version="1.0" encoding="UTF-8"?>
<!-- Generated by Pixelmator Pro 3.7 -->
<svg width="253" height="218" viewBox="0 0 253 218" xmlns="http://www.w3.org/2000/svg">
    <path id="Shape" fill="#0a3967" fill-rule="evenodd" stroke="none" d="M 121.5 216.844604 C 92.900002 216.776138 65.105247 216.357269 59.733883 215.913757 C 54.362518 215.470245 47.162518 214.400665 43.733883 213.536911 C 40.305248 212.673157 34.799999 210.651077 31.5 209.043427 C 28.200001 207.43576 23.514805 204.421036 21.088455 202.344009 C 18.662106 200.266983 14.935669 195.873566 12.807484 192.580841 C 10.679298 189.288132 7.829274 182.972916 6.474097 178.547043 C 5.118919 174.12117 3.562104 167.125 3.014508 163 C 2.466911 158.875 1.714144 140.425003 1.341693 122 C 0.898705 100.085594 1.067049 82.10199 1.828462 70 C 2.468637 59.824997 3.716893 48.350006 4.602366 44.5 C 5.487839 40.649994 7.536723 34.689194 9.155442 31.253769 C 10.774161 27.818344 14.598793 22.306992 17.654623 19.006332 C 21.553383 14.795212 25.341835 11.961288 30.355339 9.505661 C 34.284904 7.580948 40.912239 5.312439 45.082756 4.464523 C 49.428673 3.580948 62.875015 2.524445 76.582756 1.989502 C 89.737236 1.476166 114.900002 1.052155 132.5 1.047272 C 150.100006 1.042374 172.443588 1.478912 182.152405 2.017349 C 191.861237 2.555786 203.336227 3.669159 207.652405 4.491501 C 211.968582 5.313858 218.425003 7.420563 222 9.17305 C 225.790817 11.031357 230.850479 14.705841 234.139374 17.98909 C 237.24173 21.086105 241.215057 26.46405 242.971405 29.943359 C 244.727356 33.421875 247.021423 39.69516 248.069321 43.883972 C 249.117218 48.072784 250.429214 57.574997 250.984863 65 C 251.540512 72.425003 251.989273 91.550003 251.982101 107.5 C 251.97493 123.449997 251.519501 143.25 250.970047 151.5 C 250.420578 159.75 249.107544 169.954575 248.052155 174.176849 C 246.99678 178.399109 244.865799 184.452972 243.31665 187.629883 C 241.767487 190.806778 238.156403 195.941925 235.292007 199.041321 C 232.41185 202.157761 227.411972 206.100754 224.105957 207.862839 C 220.818024 209.615295 214.671722 211.933044 210.44751 213.013428 C 206.223297 214.093796 196.182022 215.425781 188.13356 215.973404 C 180.085098 216.521011 150.100006 216.913055 121.5 216.844604 Z"/>
    <path id="path1" fill="#3eadf5" fill-rule="evenodd" stroke="none" d="M 122.076324 180.866989 C 106.359344 180.793823 89.900002 180.358429 85.5 179.899414 C 81.099998 179.440414 73.900002 178.35614 69.5 177.489929 C 65.099998 176.623703 59.044548 174.696609 56.043438 173.207489 C 53.042332 171.718369 49.339272 168.921387 47.814415 166.991974 C 46.138542 164.871475 44.227867 160.322906 42.983727 155.491974 C 41.612122 150.166107 40.538944 141.050949 39.766758 128.168213 C 38.882072 113.408623 38.887676 104.302948 39.79044 89.668228 C 40.440769 79.125702 41.666977 67.840591 42.515347 64.590195 C 43.363712 61.339798 44.783146 57.151901 45.669643 55.283752 C 46.556141 53.415588 48.724091 50.786758 50.487312 49.441879 C 52.250538 48.097 57.193974 46.101303 61.472733 45.006973 C 65.751488 43.912659 74.258026 42.450912 80.376144 41.758652 C 87.138176 40.99353 104.635841 40.5 125 40.5 C 144.538071 40.5 163.501282 41.016815 170.5 41.740021 C 177.100006 42.422028 185.99353 43.937805 190.263397 45.108414 C 194.533264 46.279022 199.81105 48.529297 201.991806 50.109024 C 204.234528 51.733643 207.044891 55.128479 208.461761 57.924545 C 209.839478 60.643341 211.660889 66.835068 212.509323 71.683914 C 213.357758 76.532761 214.33194 88.824997 214.674179 99 C 215.045929 110.052055 214.825256 123.740173 214.126068 133 C 213.482361 141.524994 212.272339 151.425003 211.437119 155 C 210.601913 158.574997 208.779968 163.226074 207.388351 165.335724 C 205.595093 168.054291 203.058487 170.006226 198.679077 172.037567 C 195.280579 173.613937 188 175.795563 182.5 176.88562 C 177 177.975677 167.584351 179.347351 161.576324 179.933777 C 155.568298 180.520203 137.793304 180.94014 122.076324 180.866989 Z M 90 68.843781 L 90 155.161133 L 113.25 154.790588 C 134.500946 154.451904 136.986008 154.22699 142.152542 152.174637 C 145.261429 150.939667 149.858276 148.361511 152.367722 146.445389 C 154.877182 144.529282 158.365936 140.875031 160.120514 138.32486 C 161.875076 135.774658 164.182877 131.395813 165.248962 128.59407 C 166.315033 125.792336 167.433304 120.261017 167.734024 116.302254 C 168.038956 112.288017 167.744308 106.317078 167.067841 102.802254 C 166.400726 99.336014 164.786911 94.136307 163.481567 91.247353 C 162.176224 88.358398 158.821442 83.576782 156.026489 80.621521 C 152.768799 77.176987 148.711273 74.216675 144.722366 72.374161 C 138.5 69.5 138.5 69.5 114.25 69.17189 L 90 68.843781 Z M 110 138 L 110 85.784149 L 121.25 86.186844 C 130.383087 86.513763 133.291336 87.004044 136.705444 88.792358 C 139.018448 90.003922 142.16449 92.566269 143.696655 94.486473 C 145.228821 96.406677 147.014633 99.445259 147.665131 101.238876 C 148.315628 103.032494 148.88208 107.597794 148.92392 111.38398 C 148.965759 115.170166 148.449951 120.120171 147.777679 122.38398 C 147.037445 124.876602 144.722549 128.340668 141.908386 131.166901 C 139.086639 134.000763 135.737183 136.257034 133.380722 136.911316 C 131.246323 137.503967 125.112503 137.991364 119.75 137.994415 L 110 138 Z"/>
</svg>
