<?xml version="1.0" encoding="UTF-8"?>
<!-- Generated by Pixelmator Pro 3.7 -->
<svg width="253" height="218" viewBox="0 0 253 218" xmlns="http://www.w3.org/2000/svg">
    <path id="Shape" fill="#3eadf5" fill-rule="evenodd" stroke="none" d="M 59.011406 216.056198 C 64.428116 216.502167 92.457504 216.92337 121.298935 216.992188 C 150.140381 217.061035 180.378586 216.666809 188.494995 216.116165 C 196.611404 215.565521 206.737442 214.226166 210.997314 213.139801 C 215.257187 212.053452 221.455368 209.722855 224.771057 207.960709 C 228.10498 206.188858 233.147064 202.224045 236.051544 199.090347 C 238.940125 195.973801 242.58168 190.810211 244.143921 187.615723 C 245.706146 184.421219 247.855118 178.333832 248.919403 174.088196 C 249.983704 169.84256 251.307816 159.581482 251.861923 151.285797 C 252.416016 142.990112 252.87529 123.08049 252.882523 107.042175 C 252.889755 91.003868 252.43721 71.77298 251.876877 64.30687 C 251.316528 56.840744 249.993454 47.285919 248.936722 43.073914 C 247.879974 38.861923 245.566544 32.553894 243.795761 29.056122 C 242.024597 25.557556 238.017715 20.149826 234.889175 17.03566 C 231.572525 13.734238 226.470139 10.039413 222.647324 8.170807 C 219.042145 6.408615 212.531219 4.290253 208.178619 3.463348 C 203.826004 2.636444 192.254135 1.516907 182.463348 0.975494 C 172.672577 0.434067 150.140381 -0.004883 132.3918 4.6e-05 C 114.643219 0.004959 89.268036 0.431305 76.00251 0.947495 C 62.179054 1.485397 48.619202 2.547745 44.236599 3.436218 C 40.030876 4.288818 33.347595 6.569901 29.384857 8.505264 C 24.329031 10.974487 20.508598 13.824097 16.576925 18.058533 C 13.495299 21.377472 9.638381 26.919342 8.005997 30.373795 C 6.373613 33.828232 4.307433 39.822037 3.414485 43.693359 C 2.521537 47.564682 1.262743 59.10321 0.617165 69.334549 C -0.150676 81.50354 -0.320441 99.586723 0.126287 121.622459 C 0.501882 140.149475 1.261003 158.70163 1.813222 162.849472 C 2.365441 166.997314 3.935399 174.032211 5.302016 178.48259 C 6.668634 182.932983 9.542717 189.283157 11.688868 192.594101 C 13.835019 195.905045 17.592913 200.3228 20.039745 202.411316 C 22.486578 204.499847 27.211325 207.531265 30.539181 209.147827 C 33.867039 210.764389 39.418762 212.797653 42.876339 213.666199 C 46.333916 214.534729 53.5947 215.610245 59.011406 216.056198 Z M 121.332336 202.992233 C 93.010056 202.924652 65.027641 202.50415 60.160168 202.103409 C 55.447727 201.715439 48.911392 200.747238 46.287125 200.088028 C 43.77206 199.456253 39.126308 197.754791 36.656368 196.554977 C 34.362713 195.440796 30.637556 193.050705 29.128845 191.762924 C 27.768072 190.601425 24.881395 187.20787 23.436735 184.979141 C 22.027006 182.804306 19.686031 177.632004 18.685232 174.372894 C 17.539833 170.642914 16.138088 164.361771 15.690775 161.001892 C 15.237913 157.600357 14.486008 139.224533 14.12341 121.338699 C 13.683886 99.658234 13.850328 81.928864 14.589378 70.216171 C 15.189075 60.71199 16.38488 49.750828 17.056297 46.839939 C 17.72596 43.936653 19.464399 38.893597 20.663891 36.355244 C 21.654655 34.258587 24.692947 29.892973 26.836414 27.58444 C 29.603695 24.604061 32.031704 22.793039 35.528748 21.085114 C 38.430984 19.667688 43.985287 17.771948 47.01815 17.157114 C 50.409927 16.469507 63.483963 15.445215 76.546867 14.936908 C 89.617599 14.428298 114.816368 14.004911 132.395676 14.000045 C 149.907425 13.995182 172.203964 14.429543 181.690338 14.954137 C 190.909546 15.463942 201.967346 16.533745 205.565659 17.217344 C 208.721878 17.816963 214.044235 19.548618 216.499344 20.748655 C 218.906998 21.925528 222.759567 24.715332 225.012482 26.957907 C 227.113419 29.049183 230.229431 33.254601 231.305191 35.379532 C 232.593109 37.923519 234.547958 43.25378 235.357574 46.480789 C 236.188705 49.793564 237.410431 58.616486 237.916138 65.354652 C 238.444092 72.389206 238.889618 91.321892 238.882523 107.035858 C 238.875412 122.791222 238.422485 142.42627 237.893051 150.352783 C 237.389832 157.88649 236.161499 167.405304 235.339584 170.68399 C 234.501953 174.025467 232.675674 179.198776 231.567261 181.465302 C 230.635345 183.370895 227.780151 187.419434 225.783646 189.573517 C 223.912506 191.592316 220.105545 194.585892 218.200851 195.598175 C 215.912445 196.814362 210.755814 198.753311 207.537766 199.573975 C 204.25325 200.411606 194.889191 201.650177 187.547363 202.14827 C 179.881744 202.668335 149.821167 203.060226 121.332336 202.992233 Z"/>
    <path id="path1" fill="#3eadf5" fill-rule="evenodd" stroke="none" d="M 122.076324 180.866989 C 106.359344 180.793823 89.900002 180.358429 85.5 179.899414 C 81.099998 179.440414 73.900002 178.35614 69.5 177.489929 C 65.099998 176.623703 59.044548 174.696609 56.043438 173.207489 C 53.042332 171.718369 49.339272 168.921387 47.814415 166.991974 C 46.138542 164.871475 44.227867 160.322906 42.983727 155.491974 C 41.612122 150.166107 40.538944 141.050949 39.766758 128.168213 C 38.882072 113.408623 38.887676 104.302948 39.79044 89.668228 C 40.440769 79.125702 41.666977 67.840591 42.515347 64.590195 C 43.363712 61.339798 44.783146 57.151901 45.669643 55.283752 C 46.556141 53.415588 48.724091 50.786758 50.487312 49.441879 C 52.250538 48.097 57.193974 46.101303 61.472733 45.006973 C 65.751488 43.912659 74.258026 42.450912 80.376144 41.758652 C 87.138176 40.99353 104.635841 40.5 125 40.5 C 144.538071 40.5 163.501282 41.016815 170.5 41.740021 C 177.100006 42.422028 185.99353 43.937805 190.263397 45.108414 C 194.533264 46.279022 199.81105 48.529297 201.991806 50.109024 C 204.234528 51.733643 207.044891 55.128479 208.461761 57.924545 C 209.839478 60.643341 211.660889 66.835068 212.509323 71.683914 C 213.357758 76.532761 214.33194 88.824997 214.674179 99 C 215.045929 110.052055 214.825256 123.740173 214.126068 133 C 213.482361 141.524994 212.272339 151.425003 211.437119 155 C 210.601913 158.574997 208.779968 163.226074 207.388351 165.335724 C 205.595093 168.054291 203.058487 170.006226 198.679077 172.037567 C 195.280579 173.613937 188 175.795563 182.5 176.88562 C 177 177.975677 167.584351 179.347351 161.576324 179.933777 C 155.568298 180.520203 137.793304 180.94014 122.076324 180.866989 Z M 90 68.843781 L 90 155.161133 L 113.25 154.790588 C 134.500946 154.451904 136.986008 154.22699 142.152542 152.174637 C 145.261429 150.939667 149.858276 148.361511 152.367722 146.445389 C 154.877182 144.529282 158.365936 140.875031 160.120514 138.32486 C 161.875076 135.774658 164.182877 131.395813 165.248962 128.59407 C 166.315033 125.792336 167.433304 120.261017 167.734024 116.302254 C 168.038956 112.288017 167.744308 106.317078 167.067841 102.802254 C 166.400726 99.336014 164.786911 94.136307 163.481567 91.247353 C 162.176224 88.358398 158.821442 83.576782 156.026489 80.621521 C 152.768799 77.176987 148.711273 74.216675 144.722366 72.374161 C 138.5 69.5 138.5 69.5 114.25 69.17189 L 90 68.843781 Z M 110 138 L 110 85.784149 L 121.25 86.186844 C 130.383087 86.513763 133.291336 87.004044 136.705444 88.792358 C 139.018448 90.003922 142.16449 92.566269 143.696655 94.486473 C 145.228821 96.406677 147.014633 99.445259 147.665131 101.238876 C 148.315628 103.032494 148.88208 107.597794 148.92392 111.38398 C 148.965759 115.170166 148.449951 120.120171 147.777679 122.38398 C 147.037445 124.876602 144.722549 128.340668 141.908386 131.166901 C 139.086639 134.000763 135.737183 136.257034 133.380722 136.911316 C 131.246323 137.503967 125.112503 137.991364 119.75 137.994415 L 110 138 Z"/>
</svg>
